
nColumns=19
nRows=31
DataType=double
version=3
OpenSimVersion=4.4-2022-10-11-798caa840
endheader
time	ground_force_calcn_r_vx	ground_force_calcn_r_vy	ground_force_calcn_r_vz	ground_force_calcn_r_px	ground_force_calcn_r_py	ground_force_calcn_r_pz	ground_force_calcn_r_mx	ground_force_calcn_r_my	ground_force_calcn_r_mz	ground_force_calcn_l_vx	ground_force_calcn_l_vy	ground_force_calcn_l_vz	ground_force_calcn_l_px	ground_force_calcn_l_py	ground_force_calcn_l_pz	ground_force_calcn_l_mx	ground_force_calcn_l_my	ground_force_calcn_l_mz
0	-7.42653	436.713	-52.4957	-0.230892	0	-0.42738	0.13918	-8.18441	0.983818	-4.57629	476.978	47.8342	-0.230461	0	-0.880306	-0.0624628	6.51037	0.652899
0.01	-7.25631	433.154	-51.6597	-0.231038	0	-0.427203	0.139389	-8.32061	0.99235	-4.77457	476.606	47.7893	-0.230402	0	-0.880419	-0.06561649999999999	6.54996	0.656765
0.02	-7.06324	429.021	-50.7424	-0.231226	0	-0.427011	0.13934	-8.463520000000001	1.00102	-4.95247	476.194	47.7489	-0.230376	0	-0.880552	-0.0686244	6.59843	0.6616379999999999
0.03	-6.85305	424.343	-49.762	-0.231455	0	-0.426811	0.139007	-8.60736	1.00937	-5.09809	475.742	47.7166	-0.230397	0	-0.8807	-0.0713188	6.6553	0.667523
0.04	-6.63392	419.153	-48.7351	-0.231722	0	-0.426611	0.138424	-8.746119999999999	1.01691	-5.20315	475.242	47.6962	-0.23047	0	-0.880861	-0.0735691	6.71962	0.674394
0.05	-6.41609	413.494	-47.6743	-0.232023	0	-0.426422	0.137697	-8.874079999999999	1.02315	-5.2634	474.676	47.692	-0.230603	0	-0.881031	-0.0752915	6.79011	0.682222
0.06	-6.21309	407.419	-46.5895	-0.232352	0	-0.426252	0.13704	-8.986269999999999	1.02761	-5.2783	474.011	47.708	-0.230796	0	-0.881207	-0.07644919999999999	6.86543	0.690988
0.07000000000000001	-6.04074	400.986	-45.488	-0.232703	0	-0.42611	0.136772	-9.07898	1.02992	-5.2496	473.202	47.7467	-0.231048	0	-0.881386	-0.07703939999999999	6.94439	0.700696
0.08	-5.91471	394.267	-44.3773	-0.233076	0	-0.426007	0.137268	-9.150130000000001	1.02991	-5.17915	472.193	47.8079	-0.231354	0	-0.881566	-0.0770665	7.02631	0.711389
0.09	-5.84614	387.345	-43.267	-0.233476	0	-0.425946	0.138844	-9.19932	1.02758	-5.06886	470.919	47.8891	-0.231705	0	-0.881744	-0.07654229999999999	7.11111	0.723149
0.1	-5.83684	380.32	-42.1716	-0.233915	0	-0.425939	0.141617	-9.227550000000001	1.02319	-4.92423	469.315	47.9876	-0.232089	0	-0.881923	-0.0755373	7.19926	0.7361259999999999
0.11	-5.87741	373.306	-41.111	-0.234413	0	-0.425988	0.145429	-9.23696	1.01724	-4.75679	467.325	48.1039	-0.232491	0	-0.882107	-0.07421999999999999	7.29165	0.750563
0.12	-5.94944	366.433	-40.1105	-0.234994	0	-0.426096	0.14987	-9.23066	1.01041	-4.58191	464.91	48.2419	-0.232896	0	-0.8823	-0.0728275	7.38955	0.766785
0.13	-6.02825	359.836	-39.1971	-0.235684	0	-0.426265	0.154338	-9.21269	1.00354	-4.41381	462.054	48.4072	-0.233292	0	-0.882508	-0.071591	7.49442	0.785154
0.14	-6.08591	353.651	-38.3961	-0.236511	0	-0.426492	0.15811	-9.187749999999999	0.997519	-4.25956	458.77	48.6053	-0.233669	0	-0.882737	-0.0706359	7.60774	0.806017
0.15	-6.09594	348.003	-37.7286	-0.237496	0	-0.426778	0.160473	-9.161020000000001	0.99319	-4.11627	455.095	48.8399	-0.234024	0	-0.882991	-0.0699229	7.73068	0.829641
0.16	-6.03928	343.001	-37.2115	-0.238652	0	-0.427118	0.160893	-9.13795	0.991357	-3.97485	451.095	49.1143	-0.234356	0	-0.883273	-0.0692932	7.8639	0.856204
0.17	-5.90806	338.739	-36.8558	-0.239979	0	-0.427504	0.159136	-9.12406	0.992727	-3.82471	446.863	49.4323	-0.234667	0	-0.883586	-0.0685356	8.00742	0.885786
0.18	-5.70455	335.29	-36.6664	-0.24147	0	-0.42793	0.155248	-9.12482	0.997866	-3.65568	442.513	49.7974	-0.234961	0	-0.88393	-0.0674158	8.160539999999999	0.918332
0.19	-5.43941	332.716	-36.6408	-0.243102	0	-0.428387	0.149514	-9.1454	1.00715	-3.45925	438.181	50.2105	-0.23524	0	-0.8843	-0.0656983	8.321960000000001	0.953601
0.2	-5.13004	331.063	-36.7685	-0.244843	0	-0.428865	0.142413	-9.19054	1.02072	-3.22869	434.027	50.6678	-0.23551	0	-0.884694	-0.06315750000000001	8.490130000000001	0.991128
0.21	-4.79867	330.366	-37.0334	-0.246652	0	-0.429357	0.134567	-9.264279999999999	1.03851	-2.95436	430.215	51.1563	-0.235777	0	-0.8851	-0.0594935	8.663460000000001	1.03016
0.22	-4.47184	330.643	-37.4178	-0.248483	0	-0.42985	0.126722	-9.36969	1.06034	-2.62195	426.899	51.6526	-0.236052	0	-0.885506	-0.0542977	8.8406	1.06967
0.23	-4.1776	331.898	-37.9058	-0.250287	0	-0.430333	0.119686	-9.50868	1.08598	-2.21837	424.202	52.128	-0.236342	0	-0.885898	-0.0471725	9.02042	1.10847
0.24	-3.93924	334.102	-38.4815	-0.252019	0	-0.430794	0.114154	-9.68181	1.11514	-1.73788	422.21	52.5546	-0.236656	0	-0.886258	-0.0378764	9.201890000000001	1.14541
0.25	-3.76981	337.184	-39.1253	-0.253643	0	-0.431226	0.110552	-9.888109999999999	1.14737	-1.1846	420.965	52.9088	-0.237004	0	-0.886574	-0.0264066	9.38397	1.17942
0.26	-3.66992	341.025	-39.8091	-0.255131	0	-0.431622	0.108963	-10.1253	1.18196	-0.572647	420.466	53.1719	-0.23739	0	-0.886837	-0.0130276	9.56554	1.20965
0.27	-3.63052	345.461	-40.4963	-0.256467	0	-0.431985	0.109192	-10.3902	1.21797	0.0769365	420.675	53.3282	-0.237818	0	-0.887038	0.00178234	9.745509999999999	1.23542
0.28	-3.63751	350.31	-41.1464	-0.257641	0	-0.432316	0.110884	-10.6787	1.25429	0.74111	421.535	53.3643	-0.238293	0	-0.887175	0.0174455	9.92277	1.25618
0.29	-3.67612	355.395	-41.7222	-0.25865	0	-0.432621	0.113643	-10.9866	1.28979	1.39801	422.972	53.2698	-0.238817	0	-0.887243	0.0333701	10.0962	1.27154
0.3	-3.7316	360.57	-42.1959	-0.259497	0	-0.432904	0.117042	-11.3093	1.32348	2.02976	424.909	53.0386	-0.239393	0	-0.887243	0.0490346	10.2649	1.2813
